<?xml version="1.0" encoding="UTF-8"?>
<svg id="_图层_2" data-name="图层 2" xmlns="http://www.w3.org/2000/svg" viewBox="0 0 825.68 645.91">
  <g id="_图层_1-2" data-name="图层 1">
    <g>
      <path d="M318.44,377c15.03,29.83,15.7,74.44,1.01,103.52l13.22-2.93c1.71-.38,5.68.3,6.06,1.82,2.05,8.11-31.57,21.72-38.63,24.31l-78.42,28.78c-15.6,5.73-50.79,16.98-47.95,36.53,3.27,22.55,38.24,20.77,56.43,12.89l33.07-14.31c23.01-9.96,47.29-13.5,72.69-18.72-2.51-12.01.62-22.84,10.02-30.53,24.48-20.01,52.28-21.28,83.31-16.95-26.2-45.18-21.14-104.64,10.29-145.99,30.67-40.35,75.39-67.47,125.69-74.76,6.77-.98,14.36-.9,19.42,3.51,1.95,1.7-3.18,6.59-5.54,7.02-43.92,8.11-81.39,29.39-112.18,60.51-41.18,41.65-46.52,108.59-16.94,155.05,1.77,2.78,1.01,7.18-.07,8.05s-4.02,2.11-5.41,2.08l-44.74-1.05c-16.35-.38-49.1,9.73-48.92,24.39s25.41,22.96,29.74,21.11l19.65-8.38c14.64-6.24,30.89-4.41,47.4-2.15,79.63,10.9,203.91,15.33,274.24-27.62,20.74-12.66,35.2-30.21,45.28-52.84,11.75,14.84-14.92,44.3-25.14,53.1-49.16,42.3-119.59,51.52-182.76,52.44-38.65.56-75.27-2.55-113.2-8.78-18.14-2.98-52.66-3.24-57.03,18.45-4.05,20.1,17.84,30.66,35.26,34.43,83.31,18.06,188,5.61,268.61-20.61,22.83-7.43,42.08-17.43,61.65-30.74,49.92-33.93,71.22-99.34,45.51-154.94-4.62-9.99-7.99-15.24-8.89-27.29-6.79-90.78-60.4-171.22-138.35-216.83-53.26-31.17-112.24-45.74-174.17-41.5-45.12,3.08-87.4,13.15-128.72,30.66-70.35,29.8-110.61,64.29-165.45,114.22-.57.52-2.91,1.05-3.61,1.19s-.53-2.93.28-4c14.3-18.72,33.48-38.52,51.81-55.24,71.26-64.98,162.05-102.34,258.94-104.67,78.22-1.89,154.87,24.55,214.53,74.52,39.63,33.19,64.22,76.9,84.38,123.37,12.95,29.86,10.15,62.72,20.54,91,20.24,55.08,23.51,113.17-20.3,159.72-10.85,11.53-24.48,24.27-39.34,33.16-24.06,14.39-48.51,24.04-75.72,31.37-76.73,20.66-162.86,29.36-241.57,16.47-32.21-5.27-73.68-23.71-63.99-63.56-9.53-1.67-17.52-5.93-24.76-11.79-36.2,5.02-70.52,16.09-104.68,29.76-17.23,6.9-35.33,9.98-52.8,5.99-16.2-3.69-28.27-15.45-28.6-32.03l-25.49-4.47c-26.28,18.09-54.57,39.33-87.46,31.51-11.97-2.85-22.47-10.69-26.97-19.21-13.91-26.31,1.3-51.91,27.6-66.33-32.02-37.95-33.6-87.84-14.06-131.34C11.01,350.34-2.82,311.07.49,274.83c.38-4.2,4.99-7.82,9.56-7.21,33.74,4.51,65.13,15.35,93.83,34.18,36.02-19.9,88.82-29.25,126.04-10.94,12.89-13.15,51.14-46.19,67.48-38.52,3.05,1.43,6,6.01,7.45,10.66,9.16,29.39,10.55,60.41,4.5,90.39-1,4.94-6.17,10.12-10.01,7.31.12-32.9,2.97-60.58-9.39-92.07-18.94,9.03-33.73,20.36-48.03,34.29l-25.61,24.96c-1.3,1.27-4.75,2.04-6.26,1.91-7.42-.63-.76-17.9,7.79-26.75-42.07-9.28-86.61-2.84-124.57,16.83-1.46.76-6.24.24-6.64-1.17s.09-3.91.93-7.56c-22.43-12.82-47.13-23.94-73.58-31.14,2.4,29.27,13.37,55.74,27.56,81.27,2.05,3.69,4.53,11.07,1.86,13.7-3.73,3.67-4.3,5.07-4.82,9.53-2.01,17.3-4.67,33.87-3.5,51.15,4.55,67.05,64.73,110.09,127.62,115.26,17.53-22.01,66.27-37.19,93.97-47.5,34.65-12.89,46.01-11.55,57.14-46.55,12.18-38.33-2.81-73.26-.55-81.76.26-.99,4.73.95,5.21,1.91ZM114.55,557.13c-24.48-10.91-44.45-22.25-61.63-41.01-10,9.43-18.67,19.5-22.17,32.44-3.41,12.6,5.34,23.95,17.42,28.49,25.06,9.43,48.13-8.73,66.38-19.93Z"/>
      <path d="M133.09,50.39c8.2,8.41-38.02,11.17-46.3,5.13-1.65-1.2-1.43-6.69-.05-8.41l25.99-32.53-20.69-1.64c-2.1-.17-5.46-3.76-5.88-5.8C85.67,4.81,89.61-.02,92.24,0l32.76.23c1.77.01,5.24,1.94,6.35,3.23,1.34,1.54.82,6.95-.71,8.79l-26.4,31.91,24.24,3.1c1.3.17,3.82,2.33,4.6,3.13Z"/>
      <path d="M241.88,83.39c6.39,10.31-33.63,7.29-38.01,7.13-2.86-.1-6.51-6.88-4.73-9.15l23.65-30.19-17.57-1.67c-2.02-.19-5.59-2.46-6.2-4.29-.73-2.17,2.22-7.44,4.89-7.47l29.79-.35c1.43-.02,4.58,1.66,5.64,2.5,1.33,1.05,1.73,6.23.45,7.87l-22.6,28.93,19.68,2.88c1.67.25,4.2,2.52,5,3.81Z"/>
      <path d="M175.43,499.63c-1.93-.21-3.56-6.79-2.36-8.28,7.35-9.14,31.91-.86,56.12-28.64,1.43-1.65,7.09-2.14,8.69-.71,9.28,8.28-20.4,42.17-62.45,37.63Z"/>
      <path d="M163.29,155.05c4.21,7.3-27.35,4.57-31.38,4.07-4.35-.53-3.71-8.19-1.72-10.73l15.09-19.27-13.08-1.3c-1.93-.19-4.91-3.22-5.02-4.98-.54-8.64,23.02-5.52,31.82-5.11,2.85.13,3.12,7.61,1.51,9.62l-17.47,21.77,16.13,2.07c1.38.18,3.49,2.81,4.1,3.87Z"/>
      <path d="M64.37,468.56c23.77,21.65,49.01,13.14,46.35,27.51-2.29,12.37-45.07-4.2-49.92-26.1-.19-.85,2.98-1.94,3.56-1.41Z"/>
    </g>
  </g>
</svg>