<?xml version="1.0" encoding="UTF-8"?>
<svg id="_图层_2" data-name="图层 2" xmlns="http://www.w3.org/2000/svg" viewBox="0 0 2486.23 785.22">
  <g id="_图层_1-2" data-name="图层 1">
    <g>
      <path d="M2051.33,784.6c-76.04.39-148-.26-222.67-3.45-45.54-1.94-88.66-1.3-133.91,1.81-28.92,1.99-56.14,1.9-84.77,1.4l-115.16-2.02c-38.69-.68-75.15-1.59-113.95.76-69.99,4.24-137.6.8-207.62.82l-154.11.04-319.39-.2-130.15-.23-153.86.21-167.91.3-138.19-.04-103.46-3.26c-1.93-.06-5.79-2.84-6.13-4.66-2.24-11.9,136.15-5.41,151.95-5.76l157.85-3.47,145.65.38c-4.57-29.78,47.92-67.23,67.79-78.83,2.46-1.43,7.97-.43,9.28.88,1.57,1.57-.28,7.22-2,8.74l-41.36,36.67c-9.62,8.53-16.37,19.5-19.31,32.01l147.79-1,209.85,1.57c-9.97-11.68-18.91-22.3-24.56-35.52-15.69-36.76-5.82-75.06,24.78-100.53l-37.52,16.61c-4.85,2.15-11.06,3.02-15.04-3.69,38.16-28.89,82.72-47.33,129.66-52.83,84.89-9.95,161.92,37.66,191.78,116.58,7.18,18.99,12.05,37.55,11.37,58.71,81.08-2.47,145.46,4.76,226.94,1.37l59.56-2.48c2.53-37.44,15.61-70.51,37.08-99.53,47.23-63.83,126.75-90.59,203.25-68.26,29.51,8.61,60.31,21.89,83.71,41.02,1.39,1.14,2.76,4.38,2.86,5.6.13,1.62-5.14,3.1-6.74,2.52l-40.76-14.92c12.24,13.97,24.6,28.25,28.33,47.68,6.54,34.13-7.55,65.91-34.28,89.48,61.27-4.28,118.6-4.45,178.59-3.9l168.3,1.54c-1.55-12.93-8.27-21.8-18.11-30.15l-28.19-23.92c-1.16-.99-1.9-5.26-1.63-6.48,2.41-10.91,71.92,34.68,64.91,48.87-.88,1.79-4.54.28-8.83-.95l3.68,12.73,165.62.38c44.16.1,85.9,2.82,129.96-.22,35.28-2.43,68.62-1.09,104.04-.19,13.68.35,50.3-.63,57.97,5.81,12.75,10.71-39.7,10.7-41.92,10.66l-86.2-1.68-160.16,2.29-144.62.74ZM921.61,767.21c-37.99-33.11-36.02-94.86-8.08-131.59,8.06-10.56,17.9-17.54,30.36-24.7-26.36-3.24-51.79-.76-76.45,8.8-30.31,11.75-53.77,38.3-56.14,71.52-2.16,30.28,13.75,57.33,35.95,76.21l74.36-.23ZM1580.67,766.62l70.28.94c26.43-20.73,41.77-52.44,36.19-86.54-17.94-60.04-70.81-79.12-130.98-69.61,10.61,5.53,19.86,10.46,27.48,19.13,32.44,36.85,34.07,99.89-2.98,136.08ZM1093.1,741.02l-4.91,9.91c-1.01-43.71-36.64-98.16-78.09-118.23,30.58,37.22,27.98,100.6-12.73,133.85l100.24.15-4.51-25.68ZM1408.27,765.01l98.93.15c-39.68-32.24-40.24-95.3-11.45-131.3-43.06,21.22-77.15,72.95-81.12,119.42l-3.42-4.04-2.94,15.77ZM941.76,675.6c4.92-12.02,9.66-29.12-2.79-33.08-10.68-3.4-24.59,14.21-20.38,29.75,1.02,3.75,6.69,8.17,10.04,8.99,3.43.84,11.54-1.77,13.13-5.65ZM1521.21,652.78c-2.99-6.43-12.18-6.56-16.61-1.94-7.05,7.34-11.12,17.7-6.53,28,1.65,3.7,9.09,6.25,12.99,5.59,12.82-2.17,15.32-20.55,10.15-31.65Z"/>
      <path d="M1909.93,460.24c-3.43,2.64-6.59-6.94-5.53-10.67,10.43-36.97,20.68-71.72,28.57-109.48,14.78-70.76,18.83-141.66,10.91-213.45-3.02-27.4-7.41-54.12-20.19-77.91l-14.6-27.17c-7.81-.64-18.99-4.98-28.57-5.15-48.43-.87-134.37,62.4-173.06,92.71l-163.29,127.93c-5.73,4.49-59.92,44.86-63.25,37.39s8.9-19.55,12.29-22.1l51.71-38.97,147.01-116.22c18.45-14.58,36.52-27.03,55.72-40.35,27.01-18.73,54.07-34.63,84.72-46.93,42.42-17.02,81.9-7.61,70.59-4.25l-4.1,1.22,13.89,8.93c5.7,3.67,12.01,5.99,16.21,12.25,13.98,20.82,22.06,43.47,27.2,68.48,21.89,106.45,5.99,221.51-25.6,325.08,24.76,35.49,13.31,109.31-8.44,145.91,1.79,11.22,11.11,15.86,8.82,23.39-.56,1.83-6.52,1.09-8.06-.49l-12.6-12.98c-4.28-4.41-.9-16.57,1.15-22.54,13.84-40.25,21.86-74.35,13.27-117.79-5.59,8.22-6.77,17-14.78,23.15Z"/>
      <path d="M996.55,248.54c2.9,1.84,30.4,19.28,22.62,24.03-17.24,10.54-115.63-67.57-134.13-82.25l-122.72-97.32c-31.88-25.28-64.77-46.42-101.45-63.82-28.24-13.4-57.32-17.47-88.56-11.13,4.87-23.26,51.49-17.91,65.73-14.16,30.95,8.13,58.64,22.49,85.53,39.93,35.45,22.99,67.79,47.07,100.81,73.45l104.08,83.14c22.17,17.71,44.22,32.95,68.09,48.12Z"/>
      <path d="M541.64,238.96c1.66,46.76,9.68,90.01,20.56,134.17l24.5,99.43c-16.07-13.67-22.06-31.49-28.21-50.04-29.04-87.64-40.35-179.04-33.82-271.23,2.54-35.79,11.48-92.03,34.33-119.65,8.64-10.44,25.14-18.21,36.76-6.8-14.92,2.96-24.11,8.68-30.04,21.25-26.78,56.74-26.4,128.12-24.09,192.86Z"/>
      <path d="M760.78,140.74c23.88,23.32,163.46,162.13,149.61,186.88-.82,1.47-6.34-.54-7.92-2.71-17.23-23.78-37.55-50.83-58.06-73.82-36.6-41.01-72.76-79.67-112.65-117.07-21.69-20.33-43.74-37.85-68.7-53.61-14.38-9.08-29.08-13.18-46.17-17.75,39.08-17.78,117.82,52.61,143.9,78.08Z"/>
      <path d="M1600.01,297.45c-5.73,6.71-10.33,11.09-18.4,14.66,3.17-14.81,11.47-26.32,21.29-38.23,42.46-51.51,87.63-99.53,136.94-144.75,19.17-17.58,92.83-80.51,121.24-69.42l-19.23,10c-72.08,37.48-186.35,162.79-241.85,227.74Z"/>
      <path d="M505.46,683.86c-7.54,5.41-32.05,22.72-39.77,12.9-14.47-18.41,121.75-109.27,142.57-116.89-17.3,25.99-42.73,42-65.35,60.59-20.07,16.5-40.04,30.22-59.38,48.29l21.93-4.89Z"/>
      <path d="M1289.83,259.03c-2.37.21-7.48-2.49-8.5-4.03s2.74-5.8,4.82-6.37c28.86-7.88,60.28-5.8,89.21,2.77,49.21,14.58,62.44-28.01,77.14-22.11,9.4,3.77-14.06,23.23-17.55,26.33-16.27,14.42-38.1,19.06-59.44,12.98-28.08-8-54.5-12.37-85.68-9.57Z"/>
      <path d="M1880.82,576.36c21.45,12.94,140.89,75.29,134.55,97.37-.73,2.54-8.28,5.17-10.27,3.39-45.63-40.8-80.19-51.25-123.22-93.23-1.73-1.69-2.71-5.68-1.06-7.54Z"/>
      <path d="M562.73,592.57c.72-7.28,7.53-14.71,4.67-20.09-21.97-41.43-30.49-87.98-18.08-133.19.67-2.45,3.53-5.49,5.36-6.08s6.06,4.82,5.82,7.43c-3.17,34.85.7,74.64,14.17,109.42,6.15,15.87,3.13,34.14-11.95,42.51Z"/>
      <path d="M1263.62,246.53c-6.74,2.01-32.73,12.15-27.78.28-5.05-.18-14.21-.37-20.31,1.59l-42.38,13.63c-1.75.56-5.98-.22-7.31-1.21-10.4-7.7,40.98-32.8,72.7-29.75,8.58.83,15.8,2.1,24.49,1.33,16.7-1.48,33.82-7.84,50.7,1.99-18.1,4.35-33.59,7.2-50.11,12.13Z"/>
      <path d="M752.21,396.13c8.93,3.68,18.11,6.29,22.21,16.29-15.03-1.26-68.31-14.24-67.36-29.79,1.21-19.82,102.09-25.05,114.32-9.62,1.07,1.36-3.92,3.92-5.68,3.82-32.39-1.9-63.23-3.98-94.14,6.66l30.65,12.63Z"/>
      <path d="M1752.15,462.51c6.92-13.41,38.46-22.43,47.73-33.93-29.02-10.7-56.57-7.24-85.24-7.11-1.45,0-4.89-1.86-6-2.81-9.4-7.99,83.7-18.4,102.8,3.73,13.59,15.75-47.52,35.58-59.29,40.12Z"/>
      <path d="M805.1,312.21c15.27,14.69,30.9,24.89,44.51,40.5-9.62-2.86-52.45-34.93-49.93-45.62,4.24-18.01,92.7,8.4,95.01,31.91.18,1.86-5.59,3.79-7.49,2.64-24.8-15-52.71-27.79-82.11-29.42Z"/>
      <path d="M642.49,480.92c10.96,7.89,44.77,29.27,40.74,42.68l-51.17-35.07c-2.18-1.49-4.58-7.27-4.05-9.73s4.66-6.31,7.65-7.4c22.44-8.16,48.14-4.27,68.16,5.26,1.98.94,4.57,5.74,4.4,6.75-23-3.55-43.2-6.96-65.73-2.5Z"/>
      <path d="M1992.48,679.11c7.25,3.7,34.89,21.77,29.29,30.37-1.08,1.67-6.16,2.09-7.98.94l-48.14-30.07c-3.82-2.39-23.28-17.25-16.93-19.76,1.49-.59,5.31-1.12,7.31-.1l36.46,18.61Z"/>
      <path d="M1099.83,269.07c-2.73.92-8.5-.4-8.89-2.3-2.72-13.11,101.39-45.26,92.89-26.14l-84,28.43Z"/>
      <path d="M727.63,448.08l-55.35-10.36c-2.22-.42-6.05-5.18-5.85-7.28,1.3-13.19,69.67.75,68.18,14.17-.19,1.75-5.13,3.81-6.99,3.47Z"/>
      <path d="M1753.14,377.45c6.71,2.15,11.6,4.45,13.32,9.45-26-3.9-48.43-6.43-73.98-6.11-39.3.49-28.95-8.09-30.44-8.48,12.51,3.27,52.09-7.33,91.1,5.14Z"/>
      <path d="M1505.09,234.12c-8.42,7.66-44.71,41.8-52.9,39.09-11.9-3.93,36.44-51.17,54.68-45.98,1.54.44-.61,5.83-1.77,6.89Z"/>
      <path d="M1706.22,340.87c12.89-3.07-16.16-6.96-74.2,9.78-4.58,1.32-10.86,2.18-12.26-3.89,27.56-15.25,64.05-18.5,93.97-14.57,1.08.14,3.61,4.31,2.78,4.67l-5.69,2.47c-1.33.58-3.57,1.3-4.6,1.54Z"/>
      <path d="M1593.11,341.04c-.87.68-2.97,1.58-3.48,1.79-.78.31-1.95-2.11-2.78-3.96,18.41-20.76,45.53-40.71,76.1-41.53-24.07,13.4-49.57,27.96-69.84,43.71Z"/>
      <path d="M1005.21,225.22c-1.39-11.93,55.99,32.5,39,46.83l-37.03-41.09c-1.2-1.33-1.83-4.56-1.97-5.74Z"/>
      <path d="M1836.16,481.87l-41.21,8c-1.3.25-5.36-.95-6.27-1.87-7.83-7.89,39.29-25,51.62-11.26.95,1.06-2.64,4.84-4.14,5.13Z"/>
      <path d="M1088.35,267.99c-2.13,9.87-41.85-26.87-41.99-32.47-.21-8.4,44.88,19.11,41.99,32.47Z"/>
      <path d="M1867.99,527.03c-21.2-2.97-40.38-4.68-60.39-6.34,13.88-12.29,50.12-8.18,63.24,2.47.82.67-1.77,4.03-2.85,3.87Z"/>
      <path d="M1692.49,348.22c-3.55,3.84-8.25,6.85-15.24,9.37,2.99-4.58,7.75-7.7,15.24-9.37Z"/>
    </g>
  </g>
</svg>