<?xml version="1.0" encoding="UTF-8"?>
<svg id="_图层_2" data-name="图层 2" xmlns="http://www.w3.org/2000/svg" viewBox="0 0 1909.19 839.23">
  <g id="_图层_1-2" data-name="图层 1" data-meow-tint="cat" fill="#807267">
    <path d="M1544.36,804.71c14.93-21.57,25.37-41.87,33.78-65.73l57.25,17.04c7.79,2.15,15.38-2.59,17.83-8.82,9.74-24.82-48.51-29.14-66.49-36.26l7.99-54.33,49.41,2.64c9.02.49,15.68-5.25,16.63-12.8,1.02-8.11-4.83-15.46-13.84-16.1l-51.25-3.62c-1.32-69.27-19.85-135.1-52.64-196.59,5.78-23.19,9.39-45.36,10.97-70.48,5.37-85.31-1.71-169.55-20.61-254.22l-5.32-21.31c-5.25-21.17-11.58-40.79-22.27-58.97-12.21-20.76-34.16-26.16-56.87-18.02-17.03,8.81-33.65,18.18-49.67,30.55l-174.57,134.77c-161.04-65.29-366.09-64.13-529.79-10.74-57.27-50.8-114.6-100.1-181.13-138.8-16.67-8.2-32.81-15.91-50.6-20.62-27.37-7.25-54.36,2.85-68.34,27.49-11.97,21.11-20.89,42.52-27.89,66.73-27.07,93.72-37.85,191.2-31.09,288.44,1.25,18.07,4.46,34.13,12.41,50.81-33.77,57.16-54.24,123.13-59.39,191.17l-41.93-1.6c-6.55-.24-13.51,5.14-15.38,9.71-2.03,4.95-1.01,17.23,5.99,17.97,16.22,1.72,32.85,1.9,49.55,2.61l3.17,52.23-42.8,7.4c-9.52,1.64-13.92,9.61-12.49,17.08,1.64,8.58,8.95,13.88,18.29,11.06l42.01-6.92c5.99,25.34,15.69,45.66,29.66,68.13l-324.94.66v33.96l1908.84-.69.35-33.75-364.83-.08ZM1499.83,804.73l-1130.19-.12c-18.11-20.19-31.95-42.36-39.68-70.36l31.74-4.43c7-.98,12.58-7.47,12.47-13.45-.13-7.4-6.65-13.88-14.85-13.29l-34.31,2.48-3.28-48.91,41.63,2.97c6.91.49,13.07-5.46,13.93-11.27,1.01-6.88-4.16-13.98-12.17-14.88l-41.62-4.69c2.92-67.04,32.13-152.46,71.78-206.5,4.5-6.13,6.6-16.24.71-21.81-5.95-5.64-13.84-2.99-21.62,1.59-1.92-7.18-3.91-15.04-4.5-22.8-4.37-57.7-1.04-113.76,7.35-171.16,7.74-52.9,19.94-113.98,45.7-160.32,7.69-13.84,23.55-17.33,38.26-11.47,68.36,27.28,158.39,104.91,213.05,156.16,4.64,4.34,11.74,7.58,18.4,5.31,62.28-21.18,125.02-34.18,190.87-38.69,110.07-7.54,231.14,3.15,332.93,47.19,8.87,3.83,14.83,4.56,22.8-1.65l84.07-65.49,93.3-72.57c13.23-10.29,26.53-19.08,41-27,8.39-4.59,18.8.03,22.91,8.19,6.56,13.02,11.94,26.16,15.58,40.99,17.63,71.93,26.76,144.64,26.58,218.9-.08,34.76-1.66,66.94-7.78,100.59-2.88,15.79-17.18,14.9-10.83,25.28,6.17,10.09,11.83,18.65,17.03,29.04,25.29,50.54,38.78,105.57,40.78,162.89l-83.64,1.35c-6.71.11-12.64,6.68-13.31,12.01-.79,6.18,3.07,13.16,9.45,14.43l86.28.85c-.05,17.41-3.14,33.34-7.78,50.75-25.79-4.57-50.34-8.48-76.3-11.07-8.8-.87-14.55,5.73-15.19,12.44-.84,8.8,5.06,12.54,13.76,14.21l68.46,13.16c-9.79,27.11-23.97,51.23-43.77,71.15Z"/>
    <path d="M1209.78,632.89c-84.45,31.85-173-22.35-156.3-53.59,3.26-6.1,11.66-9.16,19.09-7.97,60.29,9.68,106.73,3.92,165.85-7.7,9.17-1.8,17.67,1.13,22.24,8.81,15.09,25.4-29.32,52.32-50.87,60.45Z"/>
    <path d="M741.02,607.77c-90.58,70.01-213,14.07-192.11-21.25,3.96-6.69,11.39-9.58,20.26-8.75,56.76,5.32,112.8-1.05,167.69-15.86,4.77-1.29,12.1.94,14.82,3.74,11.93,12.28,2.34,32.08-10.66,42.12Z"/>
    <path d="M929.63,697.53c-18.13-1.84-30.47-13.29-41.61-26.46-9.54,9.67-19.04,19.39-31.81,23.83-21.1,7.33-44.77-.66-53.31-21.76-1.55-3.82,1.44-10.71,4.2-12.61,15.15-10.45,16.12,20.71,41.17,12.15,15.98-5.46,29.59-23.34,27.95-39.53-4.27-2.54-9.99-5.96-11.04-9.09-1.27-3.79,2.01-10.12,5.64-12.1,16.54-9.02,37.68-4.15,39.89,6.73,2.53,12.46-18.3,10.69-12.42,27.29,4.23,11.94,14.62,22.2,26.65,26.86,25.69,9.96,28.74-18.71,41.99-12.24,3.99,1.95,7.3,9.88,5.27,14.91-6.47,16.01-24.32,23.86-42.55,22.01Z"/>
    <path d="M1375.22,285.45c-6.49,5.68-13.97,4.05-18.89-.57-5.56-5.21-3.74-12.71,2.68-18.4,11.12-9.85,22.33-18.82,34.73-27.68,4.6-3.29,12.07-1.57,14.99,1.81,3.67,4.25,3.71,12.25-1.06,16.43l-32.45,28.41Z"/>
    <path d="M617.11,221.44c2.78,4-1.45,10.2-3.84,12.46s-10.86,5.55-13.5,3.31c-13.1-11.14-59.21-63.88-71.05-76.27-3.18-3.32-.09-11.88,3.2-14.1,15.08-10.17,76.14,61.59,85.2,74.6Z"/>
    <path d="M1458.12,334.2c-4.96,14.95-34.98-2.75-46.35-8.4-2.25-1.12-5.06-6.26-4.79-8.74,1.73-15.58,32.33-9.76,48.88,3.91,2.77,2.29,3.33,10,2.26,13.23Z"/>
  </g>
</svg>