<?xml version="1.0" encoding="UTF-8"?>
<svg id="_图层_2" data-name="图层 2" xmlns="http://www.w3.org/2000/svg" viewBox="0 0 683.58 282.39">
  <g id="_图层_1-2" data-name="图层 1" data-meow-tint="cat" fill="#4F463E">
    <g>
      <path d="M96.91,255.81l42.76-13.17c9.98-3.07,19.15-10.39,25.36-18.56l16.09-21.17c18.41,9.59,46.85,9.02,66.95,5.39,46.1-8.33,79.49-33.44,127.64-21.56,15.86,3.91,38.03,34.77,91.56,31.73,32.29-1.83,33.72-8.61,58.13,13.67l25.13,22.94c11.38,10.39,33.35,11.34,36.78-1.15.82-2.98-1.41-9.05-3.88-11.21l-16.94-14.85c8.02.19,18.52.72,20.04-7.88,1.3-7.32-7.44-15.27-13.78-18.73-30.21-16.45-35.39-25.85-61.09-46.19-13.06-.47-25.53.65-36.82-5.69l-10.78-25.57c-6.03-14.3-15.84-25.23-28.96-32.81,33.08,6.27,66.26-28.19,96.08-44.5,41.07-22.46,91.53-3.39,93.6-23.74.48-4.73-2.36-10.69-7.11-12.96-21.65-10.35-45.37-11.62-69.12-7.78-19.45,3.14-36.6,10.8-53.41,20.76l-43.85,26c-22.94,13.6-48.13,18.78-74.8,15.75-21.84-2.49-42.38-2.28-63.99,1.36l-60.11,10.11c-37.84,6.36-74.4,1.9-107.44-17.87-10.42-6.23-21.76-10.56-33.27-14.58-4.87-12.67-13.1-21.49-24.68-29.83l-5.53,15.96c-3.24-5.46-5.52-9.02-11.41-14.71l-6.37,32.74c-13.6,3.68-22.8,12.75-26.91,25.76-6.78,21.44-21.7,18.45-13.04,37.57,7.05,15.55,20.1,23.59,37.64,21.41,10.5-1.3,43.16,15.25,44.58,32.81l-62.45,10.4c-16.67,2.77-34.98,6.77-42.58,22.21-1.76,3.57-.87,9.99,1.27,13.07,8.36,12.02,31.4-3.25,40.48-8.92,21.03,2.82,41.35,2.96,63.62,2.95-11.42,10.9-24.63,17.54-38.31,23.99-11.1,5.23-20.56,11.98-31.63,17.21l-25.01,11.82c-3.37,1.59-6.98,6.67-6.98,9.64,0,4,2.98,9.39,6.76,11.46,8.25,4.51,18.25,4.27,26.92.49,19.59-8.55,38.46-17.43,58.86-23.72ZM48.52,267.14c-17.19,9.42-36,9.13-34.65,2.27.29-1.48,2.21-4.97,3.62-5.64l20.56-9.84,45.27-22.96c10.44-5.29,25.3-11.52,31.43-21.82,14.94-25.09,2.98-55.63-18.53-71.84-13.25-9.99-25.64-14.97-42.96-14.52-10.89.28-23.9-11.41-24.44-21.54,8.26-8.62,13.68-17.04,17.57-27.92,3.34-9.34,13.46-14.42,20.88-20.34l3.63-2.89c.57-.45-1.87-2.77-2.12-3.31l6.12-18.74c2.36,2.42,5.71,7.27,5.42,10.16-.35,3.45-2.69,7.29-4.84,9.98l1.84,6.28c10.37,1.46,10.94-21.42,13.22-30.13,6.57,9.65,12.25,19.53,17.07,29.72.63,1.34,3.8,3.27,5.4,3.56l-.23-9.15,38.51,23.58c30.82,18.87,54.08,22.67,90.26,16.98,23.39-3.68,45.48-8.1,68.61-12.97,30.66-6.46,60.65-7.28,92.15-1.31,3.91-1.5,3.37-2.51-1.52-4.29,34.74-1.75,59.12-13.8,90.28-34.14,16.09-10.5,32.22-18.97,50.89-23.88,41.82-11,78.11,4.42,73.92,8.77-11.45,11.89-57.33-12.41-114.39,30.43-18.79,14.11-39.05,24.27-60.64,33.53-5.48,2.35-9.49,3.25-16.76,3.64,43.12,32.31,27.82,65.18,64.23,90.05,7.32,5,16.66,4.25,24.71,7.8s15.05,12.84,20.94,19.68c14.11,16.38,28.85,30.07,46.02,44.32-22.49,15.99-44.37-32.47-71.7-41.87-14.44-4.96-57.06,7.12-87.16-9.1-29.99-16.16-56.08-42.32-87.94-42.1,14.16,8.52,29.81,12.35,42.6,24.25-22.54-8.11-44.75-10.54-67.58-3.99l-44.59,12.78c-25.21,7.22-54.15,10.67-80.1,8.45l14.46-13.22c.65-.6,1.78-4.04,1.03-3.8-36.73,11.71-31,40.54-74.38,54.31-26.24,8.33-51.43,17.25-76.1,30.77ZM558.65,219.54l-33.09-35.08c-12.53-13.28-28.83-2.54-44.73-26.15,11.7,2.91,21.1,4.71,31.82,5.26,15.76,17.13,33.47,30.82,53.17,42.53,5.39,3.2,9.82,7.45,13.19,13.22-5.17,1.94-16.4,4.42-20.36.22ZM9.04,203.25c6.03-27.22,75.5-17.04,97.04-36.36,6.94,9.76,8.71,22.15,2.81,33.07-21.98-2.83-43.92-6-66.4-2.83-7.21,1.02-35.39,14.93-33.44,6.12Z"/>
      <path d="M544.19,149.96l139.39.41c-11.19-1.25-22.6-1.46-34.51-2.01l-54.73-2.51c-21.02-.96-40.91-1.99-63.11.18,3.01,3.29,7.77,3.91,12.96,3.93Z"/>
      <path d="M514.17,118l91.66-1.05c-8.68-3.25-17.69-2.46-27.36-2.74l-68.32-1.97c-6.58-.19-12.49.09-18.33,2.97,7.82,2.79,14.16,2.89,22.35,2.8Z"/>
    </g>
  </g>
</svg>