<?xml version="1.0" encoding="UTF-8"?>
<svg id="_图层_2" data-name="图层 2" xmlns="http://www.w3.org/2000/svg" viewBox="0 0 489.94 423.81">
  <g id="_图层_1-2" data-name="图层 1" data-meow-tint="cat" fill="#4F463E">
    <g>
      <path d="M451.84,398.65c12.58-3.42-9.77-43.73-21.14-52.86-12.45-9.99-41.95-21.13-55.21-32.85l19.27-32.93c10.75-18.37,15.7-39.39,12.86-59.92l-1.67,9.82-2.02-5.23c-5.03,28.77-14.8,46.2-30.31,68.94-22.49,32.97-7.83,58.05-12.57,66.98-6,11.33-13.44,19.99-21.62,29.3-8.64,9.83-17.42,19.21-30.26,24.15-7.96,3.06-16.93-3.83-26.93,4.67-2.05-2.29,0-7.7,2.64-10.18,13.08-12.3,15.96,2.48,31.02-15.34,15.73-18.61,20.95-23.6,6.92-49.42-15.59-28.7-22.85-46.59-23.84-80.26-13.81,30.72,3.43,69.29,21.47,94.86,4.7,6.67,2.99,13.97-2.51,19.56l-17.58,17.87c-10.93-3.2-20.96,2.3-23.28,12.48-1.78,7.82,3.39,12.21,10.28,13.74,14.08,3.13,28.02,2.8,39.7-6.6,14.49-11.65,27.68-25.25,38.47-40.3,16.49-22.99.12-33.13,7.4-54.95,8.51,7.75,16.28,14.19,26.05,19l33.13,16.32,3.78,9.02,12.16,26.64c-7.05,4.57-12.08,14.02-6.67,20.53,6.43,7.74,24.06,7.93,30.14-.53,11.92-16.58-.22-56.33-5.4-77.6-2.51-10.31-8.2-19.44-16.42-26.09-34.3-27.75-16.06-54.43-32.73-97.81-1.76-4.58-2.79-10.8-1.86-15.66,34.72-31.29,50.62-75.33,48.98-121.6-1.4-39.57,33.52-50.23,24.27-66.33-6.48-11.29-29.47-6.75-43.67,12.3-25.76,34.57-13.2,65.77-30.47,105.84-7.16,16.6-20.49,29.1-36.28,37.91-46.48-20.54-106.69-14.94-155.71-6.87l-49.06,8.08c-40.26,6.63-61.43-28.29-81.54-36.44l-8.4-3.4c-6.66-11.98-17.58-23.71-33.2-26.12l-1.46,15.18c-5.6-4.12-9.98-10.98-17.53-6.46l5.38,23.25c5.6-4.21,4.89-8.86,3.09-17.25,1.67.56,5.42,2.22,7.31,3.41,5.86,3.67-.75,15.15,2.1,22.82,3.73-2.16,7.32-6.6,7.51-10.33l1.06-20.83c17.29,12.42,16.42,20.74,29.15,34.91l.15-13.33c12.06,15.24,32.63,31.05,49.65,37.22.97.35,2.08-2.43,2.65-2.41l4.19.17c11.76.48-1,12.7,51.79,5.45,62.06-8.53,108.95-16.68,172.14-3.43,3.93.83,8.77-1.51,11.78-1.88,7.88-.98,14.53-.47,20.78-6.21,16.48-15.12,28.63-34.45,31.83-57.1l6.28-44.47c2.7-19.09,20.04-53.19,42.39-45.44-1.46,3.95-3.79,8.44-6.28,11.27-40.34,45.94-4.63,80.97-45.97,140.17-18.26,26.15-14.92,16.12-17.92,46.74,13.91,41.95-4.95,78.1,36.47,109.55,6.86,5.21,8.53,10.86,10.35,18.81l9.74,42.54c2.37,10.34,2.23,20.19-1.96,30.06-5.54.32-11.36.55-16.4-1.43-3.28-1.29.14-8.85,3.5-9.76Z"/>
      <path d="M168.09,390.64c4.26-18.21-7.7-51.79-16.06-68.99,9.93-15.05,19.62-31.01,19.8-50.18-17.59,25.01-13.69,37.32-44.06,55.05l-43.98,25.66c-21.57,12.59-15.69,27.01-24.74,44.69l-11.87,4.03c-3.43-3.85-5.47-10.27-3.68-15.42l7.53-21.62c3.19-9.14,9.07-16.91,15.59-24.08l26.67-29.37c2.73-3.01,1.64-8.9,2.54-12.03,2.34-8.15,1.65-15.08-1.1-23.79-9.35-29.6-23.52-73.81-63.69-68.09-13.3,1.89-18.8-8.66-24.49-18.41,17.45-20.93,3.89-29.88,33.16-51.61,2.42-1.8,4.6-4.72,4.79-7.41-14.81,3.51-30.01,14.12-33.63,28.83-2.38,9.68-4.71,17.39-9.52,25.91-4.37,7.74,2.79,16.51,7.64,22.09,19.34,22.27,26.11-1.15,50.15,18.2,19.72,15.88,20.65,34.42,30.09,61.03,2.21,6.24,2.71,12.66-1.64,18.28-8.6,11.11-18.42,20.4-28.11,30.86-14.15,15.25-35.33,61.41-15.83,70.47,6.6,3.07,19.3,2.03,22.18-5.25l13.6-34.37c24.4-15.87,44.99-20.6,68.7-40.16l7.16,27.48c3.19,12.23,5.43,24.75,6.89,36.87-7.48.76-12.4,3.31-14.84,8.01-2.65,5.07-3.61,13.58,2.18,16.45,10.09,5,22.32,2.8,33.61-2.45-8.59-6.2-23.59.88-30.7-4.9-.01-8.83,9.32-11.45,15.67-15.76Z"/>
      <path d="M181.81,402.27c-.19,1.2,1.21,3.76,2.26,4.52,3.66,2.64,9.21-23.35,9.75-26.6,2.16-12.94.36-26.5.64-39.61l.77-36.69,36.48,1.29c20.85.73,40.85-.33,60.64-3.9-1.86-.83-5.67-2.48-7.68-2.64-18.87-1.54-106-9.13-116.23,1.99,9.57,2.18,17.09,2.61,25.95,3.38l-3.36,19.92-2.63-12.74c-7.09,34.65-.68,52.99-6.59,91.1Z"/>
    </g>
  </g>
</svg>