<?xml version="1.0" encoding="UTF-8"?>
<svg id="_图层_2" data-name="图层 2" xmlns="http://www.w3.org/2000/svg" viewBox="0 0 458.28 385.57">
  <g id="_图层_1-2" data-name="图层 1" data-meow-tint="cat" fill="#4F463E">
    <path d="M114.66,350.78c1.94-24.61,5.4-98.84-17.51-113.56l2.84,16.59c-9.07-8.2-16.45-16.4-25.34-26.32,2.23,16.35,15.27,26.95,28.07,37.5,6.21,25.66,3.91,61.65,2.86,88.73-5.37,4.71-9.18,10.26-12.34,16.07-3.1,3.22-16.48,1.41-17.39-3.3-1.28-6.61,7.72-8.63,12.27-10.44,3.17-13.7,2.48-28.1-.05-42.31-6.07-34.08-14.68-66.37-29.4-97.59-15.96-33.85-9.83-55.12-19.23-87.54l27.12-6.67c-6.5-13.47-39.71,15.21-53.55-21.08-3.93-10.3-4.9-20.05-2.02-31.4,6.29-24.82,14.86-16.33.99-53.06l23.06,10.71.15,6.31,37.32-4.71-2.85,11.73c4.96.8,8.86-1.77,11.15-6.06l15.44-28.95c10.78,13.92,12.41,30.23,12.52,47.56.03,4.14.27,7.53,2.91,10.55l4.73-12.82,4.64,20.3c2.2,9.62,6.86,17.56,14.14,24.06,8.63,7.71,15.27,16.03,29.16,17.99-1.06-3.2-2.71-5.61-6.43-11.35,54.88.6,128.05,11.56,162.7,60.52,27.86,39.36,8.26,82.01,34.52,142.05,10.12,23.13,30.67,39.47,56.06,39.29,13.79-.09,29.04-5.24,36.01-.11,1.76,1.3,2.33,6.88,1.12,8.95-10.48,18.05-50.13,12.83-70.24.26-9.57-5.99-19.64-13.39-26.48-22.22l-18.27-23.61,4.06,14.37-6.32-6.44c1.57,10.21,8.32,16.7,14.6,24.64,22.42,28.33,58.51,40.7,93.88,30.91,8.11-2.24,14.86-8.94,17.75-16.68,1.84-4.93.99-11.3-2.04-14.87-9.8-11.54-30.27-3.08-47.44-4.8-21.03-2.11-37.16-18.51-45.03-37.37-9.01-21.59-11.71-43.79-16.52-66.45-2.19-10.31-2.8-18.67-3.51-29.82-5.47-86.25-119.07-114.17-190.41-102.53-24.09-13.52-19.29-32.03-35.38-55.11l-2.63-17.9c-1.49-10.1-8.38-20.87-18.21-24.8-9.98,5.19-15.77,15.34-21.62,26.59-9.88-6.72-22.5-.98-32.53-2.15C41.08,24.98-4.93-5.17.44,11.24l12.72,38.9C1.1,64,1.49,81.02,5.45,97.56c4.65,19.42,10.71,28.19,31.31,31.41l.17,31.88c.14,25.77,7.42,48.24,18.96,70.77,13.31,25.99,19.3,64.33,24.65,93.21,1.57,8.46,3.53,17.91,2.51,25.53-5.53,1.9-10.94,4.47-13.23,7.71-3.59,5.08-3.29,11.03-.16,15.11,6.4,8.35,17.32,1.78,24.27,5.01,8.9,4.14,18.65,9.77,28.63,6.29,4.85-1.69,16.2,2.46,20.95-25.16,4.11-23.88,9.09-46.55,16.71-69.38l8.97-26.86c13.65,4.61,28.01,7.06,43.44,6.97,7.48,19.04,20.42,32.82,37.62,43.62-4.62,47.33-22.1,31.55-26.4,41.11-2.05,4.56-5.1,13.25,1.34,16.27,9.13,4.28,24.55,3.74,33.48,1.64,1.77-.42,4.89-3.76,6.08-4.81.68,8.63,6.05,15.18,14.73,15.03l22.2-.38c6.46-.11,11.11-5.69,12.73-11.4,6.22-21.96,11.77-42.83,15.78-65.53,1.15-6.52-4.29-12.84-5.26-18.93-2.79-17.58,16.98-54.56,7.72-81.46l-15.34,61.99c-7.99,32.3,8.49,17.26.37,51.32l-11.38,47.71c-3.22,13.49-24.17,8.47-33.69,5.05,1.86-5.79,7.41-5.88,10.81-9.25,7.97-7.9,10.41-22.36,9.12-33.38l-1.52-12.92c-4.01-7.19-11.9-12.57-17.96-18.3-9.8-9.27-19.12-19.41-23.1-32.52-2.87-9.45-1.8-19.11-3.29-29.56l-4.66,22.4c-.47,2.23-.2,6.69,0,9.27-21.75-10.33-43.49-3.61-71.09-11.37,2.83-15.56,1.22-29.71-3.73-43.98-8.07,24.09,5.51,20.06-8.88,55.62-7.01,17.33-13.21,34.65-16.42,53.13l-9.26,53.41c-8.08,2.6-17.74,5-25.69,3.83-5.74-.85-4.35-10.02-.49-12.59,4.53-3.02,7.75-8.47,8.21-14.3ZM241.2,355.1c13.16-8.4,19.13-27.74,14.71-42.51-2.49-8.33-10.82-13.82-16.81-19.23-7.65-6.91-13.08-13.94-19.21-22.63l22.41-1.26c5.07,14.12,12.72,25.23,23.7,35.08l16.57,14.86-7.6,13.75c-5.62,10.17-10.3,20.26-14.79,32.14l-33.02-.61c.79-10.09,8.79-6.24,14.04-9.59ZM271.9,359.16l11.84-31.5c.79,9.7-.56,17.66-3.14,27.11l-8.71,4.39Z"/>
  </g>
</svg>