<?xml version="1.0" standalone="no"?>
<!DOCTYPE svg PUBLIC "-//W3C//DTD SVG 20010904//EN"
 "http://www.w3.org/TR/2001/REC-SVG-20010904/DTD/svg10.dtd">
<svg version="1.0" xmlns="http://www.w3.org/2000/svg"
 width="512.000000pt" height="512.000000pt" viewBox="0 0 512.000000 512.000000"
 preserveAspectRatio="xMidYMid meet">

<g transform="translate(0.000000,512.000000) scale(0.100000,-0.100000)"
fill="#000000" stroke="none">
<path d="M2335 4784 c-218 -36 -423 -144 -582 -305 -121 -123 -192 -235 -249
-395 -54 -152 -64 -238 -64 -579 l0 -301 -69 -10 c-196 -31 -361 -187 -401
-377 -7 -38 -10 -305 -8 -893 3 -835 4 -839 26 -919 51 -182 164 -358 304
-475 89 -73 243 -152 358 -182 85 -23 86 -23 910 -23 820 0 825 0 910 22 108
28 266 108 350 176 142 115 261 300 312 482 22 79 23 85 26 919 2 588 -1 855
-8 893 -40 190 -205 346 -401 377 l-69 10 0 301 c0 218 -4 325 -15 392 -64
397 -347 725 -735 852 -150 50 -417 65 -595 35z m480 -334 c133 -42 222 -96
320 -195 98 -98 152 -185 196 -320 21 -66 23 -89 27 -402 l4 -333 -802 0 -802
0 4 333 c4 313 6 336 27 402 81 247 263 433 499 510 89 29 141 34 302 31 126
-3 168 -8 225 -26z m951 -1596 c15 -11 37 -33 48 -48 21 -27 21 -35 21 -854
l0 -827 -25 -75 c-64 -196 -237 -353 -438 -395 -97 -21 -1525 -21 -1622 -1
-199 42 -366 190 -438 386 l-27 75 -3 805 c-2 443 0 819 3 837 7 40 49 91 90
109 24 11 242 13 1197 11 1161 -2 1167 -2 1194 -23z"/>
<path d="M2444 2379 c-71 -27 -137 -88 -171 -157 -24 -48 -28 -70 -28 -137 0
-112 39 -192 129 -262 l25 -20 3 -291 c3 -275 4 -292 24 -318 39 -53 71 -69
134 -69 63 0 95 16 134 69 20 26 21 43 24 322 2 162 7 294 11 294 20 0 96 89
120 140 35 74 37 191 4 262 -69 152 -254 227 -409 167z"/>
</g>
</svg>
