<?xml version="1.0" standalone="no"?>
<!DOCTYPE svg PUBLIC "-//W3C//DTD SVG 20010904//EN"
 "http://www.w3.org/TR/2001/REC-SVG-20010904/DTD/svg10.dtd">
<svg version="1.0" xmlns="http://www.w3.org/2000/svg"
 width="512.000000pt" height="512.000000pt" viewBox="0 0 512.000000 512.000000"
 preserveAspectRatio="xMidYMid meet">

<g transform="translate(0.000000,512.000000) scale(0.100000,-0.100000)"
fill="#000000" stroke="none">
<path d="M2335 4784 c-218 -36 -423 -144 -582 -305 -121 -123 -192 -235 -249
-395 -54 -152 -64 -238 -64 -579 l0 -301 -69 -10 c-196 -31 -361 -187 -401
-377 -7 -38 -10 -305 -8 -893 3 -835 4 -839 26 -919 51 -182 164 -358 304
-475 89 -73 243 -152 358 -182 85 -23 86 -23 910 -23 820 0 825 0 910 22 108
28 266 108 350 176 142 115 261 300 312 482 22 79 23 85 26 919 2 588 -1 855
-8 893 -28 131 -131 268 -248 327 -114 58 -80 56 -1155 56 l-989 0 4 333 c5
374 7 388 91 552 58 112 190 244 302 302 146 75 205 88 405 88 156 0 183 -3
250 -23 136 -43 226 -97 325 -197 139 -138 205 -284 224 -488 6 -73 14 -106
28 -125 71 -97 195 -96 266 0 61 82 3 405 -106 600 -136 241 -354 421 -617
507 -150 50 -417 65 -595 35z m1431 -1930 c15 -11 37 -33 48 -48 21 -27 21
-35 21 -854 l0 -827 -25 -75 c-64 -196 -237 -353 -438 -395 -97 -21 -1525 -21
-1622 -1 -199 42 -366 190 -438 386 l-27 75 -3 805 c-2 443 0 819 3 837 7 40
49 91 90 109 24 11 242 13 1197 11 1161 -2 1167 -2 1194 -23z"/>
<path d="M2444 2379 c-71 -27 -137 -88 -171 -157 -24 -48 -28 -70 -28 -137 0
-112 39 -192 129 -262 l25 -20 3 -291 c3 -275 4 -292 24 -318 39 -53 71 -69
134 -69 63 0 95 16 134 69 20 26 21 43 24 322 2 162 7 294 11 294 20 0 96 89
120 140 35 74 37 191 4 262 -69 152 -254 227 -409 167z"/>
</g>
</svg>
